<mxfile host="app.diagrams.net" modified="2023-01-30T06:27:41.260Z" agent="5.0 (Windows NT 10.0; Win64; x64) AppleWebKit/537.36 (KHTML, like Gecko) Chrome/108.0.0.0 Safari/537.36" etag="SLaqzr8qw5QDD3Tm88tn" version="20.8.13" type="github">
  <diagram name="第 1 页" id="lxdHE2UPKA5CxRFo4Gff">
    <mxGraphModel dx="1647" dy="806" grid="1" gridSize="10" guides="1" tooltips="1" connect="1" arrows="1" fold="1" page="1" pageScale="1" pageWidth="827" pageHeight="1169" math="0" shadow="0">
      <root>
        <mxCell id="0" />
        <mxCell id="1" parent="0" />
        <mxCell id="LKgxjD0HNKO4zgZzNQQN-1" value="开始" style="strokeWidth=2;html=1;shape=mxgraph.flowchart.start_1;whiteSpace=wrap;fillColor=#d5e8d4;strokeColor=#000000;" vertex="1" parent="1">
          <mxGeometry x="210" y="50" width="120" height="50" as="geometry" />
        </mxCell>
        <mxCell id="LKgxjD0HNKO4zgZzNQQN-9" style="edgeStyle=orthogonalEdgeStyle;rounded=0;orthogonalLoop=1;jettySize=auto;html=1;exitX=0.5;exitY=1;exitDx=0;exitDy=0;entryX=0.5;entryY=0;entryDx=0;entryDy=0;" edge="1" parent="1" source="LKgxjD0HNKO4zgZzNQQN-4" target="LKgxjD0HNKO4zgZzNQQN-5">
          <mxGeometry relative="1" as="geometry" />
        </mxCell>
        <mxCell id="LKgxjD0HNKO4zgZzNQQN-4" value="构造GameplayCueSet" style="rounded=1;whiteSpace=wrap;html=1;absoluteArcSize=1;arcSize=14;strokeWidth=2;strokeColor=#000000;fillColor=#dae8fc;" vertex="1" parent="1">
          <mxGeometry x="185" y="150" width="170" height="40" as="geometry" />
        </mxCell>
        <mxCell id="LKgxjD0HNKO4zgZzNQQN-10" style="edgeStyle=orthogonalEdgeStyle;rounded=0;orthogonalLoop=1;jettySize=auto;html=1;exitX=0.5;exitY=1;exitDx=0;exitDy=0;entryX=0.5;entryY=0;entryDx=0;entryDy=0;" edge="1" parent="1" source="LKgxjD0HNKO4zgZzNQQN-5" target="LKgxjD0HNKO4zgZzNQQN-6">
          <mxGeometry relative="1" as="geometry" />
        </mxCell>
        <mxCell id="LKgxjD0HNKO4zgZzNQQN-5" value="构造StaticObjectLibrary,&lt;br&gt;ActorObjectLibrary" style="rounded=1;whiteSpace=wrap;html=1;absoluteArcSize=1;arcSize=14;strokeWidth=2;strokeColor=#000000;fillColor=#dae8fc;" vertex="1" parent="1">
          <mxGeometry x="185" y="210" width="170" height="50" as="geometry" />
        </mxCell>
        <mxCell id="LKgxjD0HNKO4zgZzNQQN-6" value="LoadAssetDataFromPath" style="rounded=1;whiteSpace=wrap;html=1;absoluteArcSize=1;arcSize=14;strokeWidth=2;strokeColor=#000000;fillColor=#dae8fc;" vertex="1" parent="1">
          <mxGeometry x="185" y="280" width="170" height="40" as="geometry" />
        </mxCell>
        <mxCell id="LKgxjD0HNKO4zgZzNQQN-7" value="" style="endArrow=classic;html=1;rounded=0;exitX=0.5;exitY=1;exitDx=0;exitDy=0;exitPerimeter=0;" edge="1" parent="1" source="LKgxjD0HNKO4zgZzNQQN-1" target="LKgxjD0HNKO4zgZzNQQN-4">
          <mxGeometry relative="1" as="geometry">
            <mxPoint x="360" y="300" as="sourcePoint" />
            <mxPoint x="460" y="300" as="targetPoint" />
          </mxGeometry>
        </mxCell>
        <mxCell id="LKgxjD0HNKO4zgZzNQQN-8" value="Login" style="edgeLabel;resizable=0;html=1;align=center;verticalAlign=middle;strokeColor=#000000;" connectable="0" vertex="1" parent="LKgxjD0HNKO4zgZzNQQN-7">
          <mxGeometry relative="1" as="geometry" />
        </mxCell>
        <mxCell id="LKgxjD0HNKO4zgZzNQQN-11" value="" style="swimlane;startSize=0;strokeColor=#d6b656;fillColor=#fff2cc;strokeWidth=2;" vertex="1" parent="1">
          <mxGeometry x="140" y="135" width="260" height="215" as="geometry" />
        </mxCell>
        <mxCell id="LKgxjD0HNKO4zgZzNQQN-23" value="&lt;font color=&quot;#ffd966&quot;&gt;NBGameplayCueManager&lt;/font&gt;" style="text;html=1;strokeColor=none;fillColor=none;align=center;verticalAlign=middle;whiteSpace=wrap;rounded=0;" vertex="1" parent="LKgxjD0HNKO4zgZzNQQN-11">
          <mxGeometry x="45" y="185" width="60" height="30" as="geometry" />
        </mxCell>
        <mxCell id="LKgxjD0HNKO4zgZzNQQN-12" value="TaskBegin添加回调监听" style="rounded=1;whiteSpace=wrap;html=1;absoluteArcSize=1;arcSize=14;strokeWidth=2;strokeColor=#000000;fillColor=#dae8fc;" vertex="1" parent="1">
          <mxGeometry x="185" y="390" width="170" height="40" as="geometry" />
        </mxCell>
        <mxCell id="LKgxjD0HNKO4zgZzNQQN-13" value="" style="endArrow=classic;html=1;rounded=0;exitX=0.5;exitY=1;exitDx=0;exitDy=0;" edge="1" parent="1" source="LKgxjD0HNKO4zgZzNQQN-11" target="LKgxjD0HNKO4zgZzNQQN-12">
          <mxGeometry relative="1" as="geometry">
            <mxPoint x="260" y="320" as="sourcePoint" />
            <mxPoint x="360" y="320" as="targetPoint" />
          </mxGeometry>
        </mxCell>
        <mxCell id="LKgxjD0HNKO4zgZzNQQN-14" value="PreEnterBattle" style="edgeLabel;resizable=0;html=1;align=center;verticalAlign=middle;strokeColor=#000000;" connectable="0" vertex="1" parent="LKgxjD0HNKO4zgZzNQQN-13">
          <mxGeometry relative="1" as="geometry" />
        </mxCell>
        <mxCell id="LKgxjD0HNKO4zgZzNQQN-15" value="异步加载" style="rounded=1;whiteSpace=wrap;html=1;absoluteArcSize=1;arcSize=14;strokeWidth=2;strokeColor=#000000;fillColor=#dae8fc;" vertex="1" parent="1">
          <mxGeometry x="185" y="450" width="170" height="40" as="geometry" />
        </mxCell>
        <mxCell id="LKgxjD0HNKO4zgZzNQQN-16" value="" style="endArrow=classic;html=1;rounded=0;exitX=0.5;exitY=1;exitDx=0;exitDy=0;" edge="1" parent="1" source="LKgxjD0HNKO4zgZzNQQN-12" target="LKgxjD0HNKO4zgZzNQQN-15">
          <mxGeometry relative="1" as="geometry">
            <mxPoint x="270" y="440" as="sourcePoint" />
            <mxPoint x="370" y="440" as="targetPoint" />
          </mxGeometry>
        </mxCell>
        <mxCell id="LKgxjD0HNKO4zgZzNQQN-17" value="" style="edgeLabel;resizable=0;html=1;align=center;verticalAlign=middle;strokeColor=#000000;" connectable="0" vertex="1" parent="LKgxjD0HNKO4zgZzNQQN-16">
          <mxGeometry relative="1" as="geometry" />
        </mxCell>
        <mxCell id="LKgxjD0HNKO4zgZzNQQN-19" value="TaskEnd" style="rounded=1;whiteSpace=wrap;html=1;absoluteArcSize=1;arcSize=14;strokeWidth=2;strokeColor=#000000;fillColor=#dae8fc;" vertex="1" parent="1">
          <mxGeometry x="185" y="520" width="170" height="40" as="geometry" />
        </mxCell>
        <mxCell id="LKgxjD0HNKO4zgZzNQQN-20" value="" style="endArrow=classic;html=1;rounded=0;entryX=0.5;entryY=0;entryDx=0;entryDy=0;exitX=0.5;exitY=1;exitDx=0;exitDy=0;" edge="1" parent="1" source="LKgxjD0HNKO4zgZzNQQN-15" target="LKgxjD0HNKO4zgZzNQQN-19">
          <mxGeometry relative="1" as="geometry">
            <mxPoint x="270" y="500" as="sourcePoint" />
            <mxPoint x="370" y="500" as="targetPoint" />
          </mxGeometry>
        </mxCell>
        <mxCell id="LKgxjD0HNKO4zgZzNQQN-21" value="回调/超时" style="edgeLabel;resizable=0;html=1;align=center;verticalAlign=middle;strokeColor=#000000;" connectable="0" vertex="1" parent="LKgxjD0HNKO4zgZzNQQN-20">
          <mxGeometry relative="1" as="geometry" />
        </mxCell>
        <mxCell id="LKgxjD0HNKO4zgZzNQQN-40" style="edgeStyle=orthogonalEdgeStyle;rounded=0;orthogonalLoop=1;jettySize=auto;html=1;exitX=0.5;exitY=1;exitDx=0;exitDy=0;entryX=0.5;entryY=0;entryDx=0;entryDy=0;entryPerimeter=0;fontSize=8;fontColor=#000000;" edge="1" parent="1" source="LKgxjD0HNKO4zgZzNQQN-25" target="LKgxjD0HNKO4zgZzNQQN-32">
          <mxGeometry relative="1" as="geometry" />
        </mxCell>
        <mxCell id="LKgxjD0HNKO4zgZzNQQN-25" value="释放技能" style="rounded=1;whiteSpace=wrap;html=1;absoluteArcSize=1;arcSize=14;strokeWidth=2;strokeColor=#000000;fillColor=#dae8fc;" vertex="1" parent="1">
          <mxGeometry x="185" y="630" width="170" height="40" as="geometry" />
        </mxCell>
        <mxCell id="LKgxjD0HNKO4zgZzNQQN-26" value="" style="endArrow=classic;html=1;rounded=0;fontColor=#FFD966;entryX=0.5;entryY=0;entryDx=0;entryDy=0;" edge="1" parent="1" target="LKgxjD0HNKO4zgZzNQQN-25">
          <mxGeometry relative="1" as="geometry">
            <mxPoint x="270" y="590" as="sourcePoint" />
            <mxPoint x="370" y="590" as="targetPoint" />
          </mxGeometry>
        </mxCell>
        <mxCell id="LKgxjD0HNKO4zgZzNQQN-27" value="&lt;font color=&quot;#000000&quot;&gt;EnterBattle&lt;/font&gt;" style="edgeLabel;resizable=0;html=1;align=center;verticalAlign=middle;strokeColor=#000000;fontColor=#FFD966;" connectable="0" vertex="1" parent="LKgxjD0HNKO4zgZzNQQN-26">
          <mxGeometry relative="1" as="geometry" />
        </mxCell>
        <mxCell id="LKgxjD0HNKO4zgZzNQQN-72" style="edgeStyle=orthogonalEdgeStyle;rounded=0;orthogonalLoop=1;jettySize=auto;html=1;exitX=0.5;exitY=1;exitDx=0;exitDy=0;entryX=0.5;entryY=1;entryDx=0;entryDy=0;fontSize=8;fontColor=#000000;" edge="1" parent="1" source="LKgxjD0HNKO4zgZzNQQN-28" target="LKgxjD0HNKO4zgZzNQQN-66">
          <mxGeometry relative="1" as="geometry" />
        </mxCell>
        <mxCell id="LKgxjD0HNKO4zgZzNQQN-28" value="" style="swimlane;startSize=0;strokeColor=#d6b656;fillColor=#fff2cc;strokeWidth=2;" vertex="1" parent="1">
          <mxGeometry x="110" y="620" width="320" height="270" as="geometry" />
        </mxCell>
        <mxCell id="LKgxjD0HNKO4zgZzNQQN-29" value="GameplayCueSet" style="text;html=1;strokeColor=none;fillColor=none;align=center;verticalAlign=middle;whiteSpace=wrap;rounded=0;fontColor=#FFD966;" vertex="1" parent="LKgxjD0HNKO4zgZzNQQN-28">
          <mxGeometry x="20" y="250" width="60" height="30" as="geometry" />
        </mxCell>
        <mxCell id="LKgxjD0HNKO4zgZzNQQN-43" style="edgeStyle=orthogonalEdgeStyle;rounded=0;orthogonalLoop=1;jettySize=auto;html=1;exitX=1;exitY=0.5;exitDx=0;exitDy=0;exitPerimeter=0;fontSize=8;fontColor=#000000;entryX=1;entryY=0.5;entryDx=0;entryDy=0;" edge="1" parent="LKgxjD0HNKO4zgZzNQQN-28" source="LKgxjD0HNKO4zgZzNQQN-32" target="LKgxjD0HNKO4zgZzNQQN-39">
          <mxGeometry relative="1" as="geometry">
            <Array as="points" />
          </mxGeometry>
        </mxCell>
        <mxCell id="LKgxjD0HNKO4zgZzNQQN-32" value="&lt;font style=&quot;font-size: 8px;&quot;&gt;CueData.LoadedGameplay&lt;br&gt;CueClass == nullptr&lt;/font&gt;" style="strokeWidth=2;html=1;shape=mxgraph.flowchart.decision;whiteSpace=wrap;strokeColor=#000000;fillColor=#dae8fc;" vertex="1" parent="LKgxjD0HNKO4zgZzNQQN-28">
          <mxGeometry x="60" y="65" width="190" height="65" as="geometry" />
        </mxCell>
        <mxCell id="LKgxjD0HNKO4zgZzNQQN-45" style="edgeStyle=orthogonalEdgeStyle;rounded=0;orthogonalLoop=1;jettySize=auto;html=1;exitX=0.5;exitY=1;exitDx=0;exitDy=0;entryX=0.5;entryY=0;entryDx=0;entryDy=0;fontSize=8;fontColor=#000000;" edge="1" parent="LKgxjD0HNKO4zgZzNQQN-28" source="LKgxjD0HNKO4zgZzNQQN-38" target="LKgxjD0HNKO4zgZzNQQN-39">
          <mxGeometry relative="1" as="geometry" />
        </mxCell>
        <mxCell id="LKgxjD0HNKO4zgZzNQQN-38" value="HandleMissingGameplayCue" style="rounded=1;whiteSpace=wrap;html=1;absoluteArcSize=1;arcSize=14;strokeWidth=2;strokeColor=#000000;fillColor=#dae8fc;" vertex="1" parent="LKgxjD0HNKO4zgZzNQQN-28">
          <mxGeometry x="70" y="170" width="170" height="30" as="geometry" />
        </mxCell>
        <mxCell id="LKgxjD0HNKO4zgZzNQQN-39" value="创建实例" style="rounded=1;whiteSpace=wrap;html=1;absoluteArcSize=1;arcSize=14;strokeWidth=2;strokeColor=#000000;fillColor=#dae8fc;" vertex="1" parent="LKgxjD0HNKO4zgZzNQQN-28">
          <mxGeometry x="70" y="220" width="170" height="30" as="geometry" />
        </mxCell>
        <mxCell id="LKgxjD0HNKO4zgZzNQQN-41" value="" style="endArrow=classic;html=1;rounded=0;fontSize=8;fontColor=#000000;entryX=0.5;entryY=0;entryDx=0;entryDy=0;" edge="1" parent="LKgxjD0HNKO4zgZzNQQN-28" target="LKgxjD0HNKO4zgZzNQQN-38">
          <mxGeometry relative="1" as="geometry">
            <mxPoint x="155" y="130" as="sourcePoint" />
            <mxPoint x="255" y="130" as="targetPoint" />
          </mxGeometry>
        </mxCell>
        <mxCell id="LKgxjD0HNKO4zgZzNQQN-42" value="Yes" style="edgeLabel;resizable=0;html=1;align=center;verticalAlign=middle;strokeColor=#000000;fontSize=8;fontColor=#000000;" connectable="0" vertex="1" parent="LKgxjD0HNKO4zgZzNQQN-41">
          <mxGeometry relative="1" as="geometry" />
        </mxCell>
        <mxCell id="LKgxjD0HNKO4zgZzNQQN-22" value="" style="swimlane;startSize=0;strokeColor=#d6b656;fillColor=#fff2cc;strokeWidth=2;" vertex="1" parent="1">
          <mxGeometry x="140" y="380" width="260" height="210" as="geometry" />
        </mxCell>
        <mxCell id="LKgxjD0HNKO4zgZzNQQN-24" value="LoadingTaskGameplayCue" style="text;html=1;strokeColor=none;fillColor=none;align=center;verticalAlign=middle;whiteSpace=wrap;rounded=0;fontColor=#FFD966;" vertex="1" parent="LKgxjD0HNKO4zgZzNQQN-22">
          <mxGeometry x="45" y="180" width="60" height="30" as="geometry" />
        </mxCell>
        <mxCell id="LKgxjD0HNKO4zgZzNQQN-74" style="edgeStyle=orthogonalEdgeStyle;rounded=0;orthogonalLoop=1;jettySize=auto;html=1;exitX=0.5;exitY=0;exitDx=0;exitDy=0;fontSize=8;fontColor=#000000;" edge="1" parent="1" source="LKgxjD0HNKO4zgZzNQQN-66">
          <mxGeometry relative="1" as="geometry">
            <mxPoint x="310" y="370" as="targetPoint" />
            <Array as="points">
              <mxPoint x="625" y="370" />
            </Array>
          </mxGeometry>
        </mxCell>
        <mxCell id="LKgxjD0HNKO4zgZzNQQN-66" value="" style="swimlane;startSize=0;strokeColor=#d6b656;fontSize=8;fillColor=#fff2cc;strokeWidth=2;" vertex="1" parent="1">
          <mxGeometry x="510" y="590" width="230" height="200" as="geometry" />
        </mxCell>
        <mxCell id="LKgxjD0HNKO4zgZzNQQN-47" value="设置LoadedGameplayCueClass为nullptr" style="rounded=1;whiteSpace=wrap;html=1;absoluteArcSize=1;arcSize=14;strokeWidth=2;strokeColor=#000000;fillColor=#dae8fc;" vertex="1" parent="LKgxjD0HNKO4zgZzNQQN-66">
          <mxGeometry x="20" y="30" width="190" height="40" as="geometry" />
        </mxCell>
        <mxCell id="LKgxjD0HNKO4zgZzNQQN-46" value="依次遍历GameplayCueData。卸载GameplayCueNotifyObj" style="rounded=1;whiteSpace=wrap;html=1;absoluteArcSize=1;arcSize=14;strokeWidth=2;strokeColor=#000000;fillColor=#dae8fc;" vertex="1" parent="LKgxjD0HNKO4zgZzNQQN-66">
          <mxGeometry x="20" y="120" width="190" height="40" as="geometry" />
        </mxCell>
        <mxCell id="LKgxjD0HNKO4zgZzNQQN-77" value="" style="endArrow=classic;html=1;rounded=0;fontSize=8;fontColor=#000000;exitX=0.5;exitY=0;exitDx=0;exitDy=0;entryX=0.5;entryY=1;entryDx=0;entryDy=0;" edge="1" parent="LKgxjD0HNKO4zgZzNQQN-66" source="LKgxjD0HNKO4zgZzNQQN-46" target="LKgxjD0HNKO4zgZzNQQN-47">
          <mxGeometry width="50" height="50" relative="1" as="geometry">
            <mxPoint x="30" y="40" as="sourcePoint" />
            <mxPoint x="80" y="-10" as="targetPoint" />
          </mxGeometry>
        </mxCell>
        <mxCell id="LKgxjD0HNKO4zgZzNQQN-78" value="&lt;font color=&quot;#ffd966&quot;&gt;NBGameplayCueManager&lt;/font&gt;" style="text;html=1;strokeColor=none;fillColor=none;align=center;verticalAlign=middle;whiteSpace=wrap;rounded=0;fontSize=8;fontColor=#000000;" vertex="1" parent="LKgxjD0HNKO4zgZzNQQN-66">
          <mxGeometry x="50" y="170" width="60" height="30" as="geometry" />
        </mxCell>
        <mxCell id="LKgxjD0HNKO4zgZzNQQN-73" value="ExitBattle" style="text;strokeColor=none;fillColor=none;align=left;verticalAlign=middle;spacingLeft=4;spacingRight=4;overflow=hidden;points=[[0,0.5],[1,0.5]];portConstraint=eastwest;rotatable=0;whiteSpace=wrap;html=1;fontSize=8;fontColor=#000000;" vertex="1" parent="1">
          <mxGeometry x="480" y="910" width="80" height="30" as="geometry" />
        </mxCell>
      </root>
    </mxGraphModel>
  </diagram>
</mxfile>
